<?xml version="1.0" standalone="no"?>
<!DOCTYPE svg PUBLIC "-//W3C//DTD SVG 20010904//EN"
 "http://www.w3.org/TR/2001/REC-SVG-20010904/DTD/svg10.dtd">
<svg version="1.0" xmlns="http://www.w3.org/2000/svg"
 width="244.000000pt" height="170.000000pt" viewBox="0 0 244.000000 170.000000"
 preserveAspectRatio="xMidYMid meet">

<g transform="translate(0.000000,170.000000) scale(0.100000,-0.100000)"
fill="#000000" stroke="none">
<path d="M378 1473 c-2 -30 -8 -38 -28 -43 -18 -4 -26 -13 -28 -33 -3 -24 -7
-27 -43 -27 -37 0 -39 -1 -39 -33 0 -40 -15 -57 -52 -57 l-29 0 2 -305 1 -305
59 0 c59 0 59 0 59 -30 0 -19 5 -29 12 -27 9 1 13 -12 13 -41 l0 -42 128 0
127 0 0 -85 0 -85 66 0 c57 0 67 3 71 19 3 12 15 21 31 23 18 2 28 10 32 28 4
16 14 26 28 28 15 2 22 10 22 25 0 33 15 49 41 45 19 -2 25 -10 27 -34 3 -26
8 -33 33 -38 20 -4 29 -11 29 -25 0 -40 28 -43 366 -42 l324 1 6 -28 c10 -48
14 -54 31 -50 14 2 18 13 18 43 0 33 -4 40 -25 45 -22 5 -24 10 -21 48 2 33
-2 48 -21 67 l-23 25 -357 0 -357 0 -3 22 c-2 14 -12 24 -28 28 l-25 6 0 319
0 319 25 6 c16 4 26 14 28 28 l3 22 599 0 599 0 3 -22 c2 -17 11 -24 31 -26
l27 -3 0 -324 0 -324 -27 -3 c-20 -2 -29 -9 -31 -25 -3 -23 -6 -23 -146 -23
-181 0 -184 -2 -188 -135 -3 -85 -4 -90 -25 -93 -30 -4 -33 -52 -4 -52 11 0
26 -9 34 -21 12 -17 27 -21 82 -22 l66 -2 -2 85 -2 85 127 0 126 0 0 43 c0 31
4 42 15 42 10 0 15 10 15 29 0 29 0 29 55 26 l55 -4 -2 312 c-3 304 -4 312
-23 313 -43 2 -45 4 -45 43 0 39 -1 40 -37 43 -30 2 -38 8 -43 28 -4 18 -13
26 -33 28 -24 3 -27 7 -27 42 l0 40 -222 2 -222 3 -6 25 c-4 15 -15 26 -30 30
-20 5 -26 13 -28 43 l-3 37 -594 0 -594 0 -3 -37z"/>
<path d="M1230 1025 c0 -8 -7 -15 -15 -15 -8 0 -15 -7 -15 -15 0 -8 -7 -15
-15 -15 -11 0 -15 -12 -15 -45 0 -33 4 -45 15 -45 8 0 15 -7 15 -15 0 -8 7
-15 15 -15 8 0 15 -7 15 -15 0 -12 14 -15 65 -15 51 0 65 3 65 15 0 8 7 15 15
15 8 0 15 7 15 15 0 10 -11 15 -35 15 -24 0 -35 -5 -35 -15 0 -9 -9 -15 -25
-15 -16 0 -25 6 -25 15 0 8 -7 15 -15 15 -11 0 -15 12 -15 45 0 33 4 45 15 45
8 0 15 7 15 15 0 9 9 15 25 15 16 0 25 -6 25 -15 0 -10 11 -15 35 -15 24 0 35
5 35 15 0 8 -7 15 -15 15 -8 0 -15 7 -15 15 0 12 -14 15 -65 15 -51 0 -65 -3
-65 -15z"/>
<path d="M1410 935 l0 -105 35 0 35 0 0 60 0 60 40 0 40 0 0 -60 0 -60 35 0
35 0 0 60 c0 47 -3 60 -15 60 -8 0 -15 7 -15 15 0 12 -13 15 -60 15 l-60 0 0
30 c0 28 -3 30 -35 30 l-35 0 0 -105z"/>
<path d="M1980 1010 c0 -27 -3 -30 -30 -30 -20 0 -30 -5 -30 -15 0 -10 10 -15
30 -15 l30 0 0 -60 0 -60 35 0 35 0 0 60 0 60 30 0 c20 0 30 5 30 15 0 10 -10
15 -30 15 -27 0 -30 3 -30 30 0 28 -3 30 -35 30 -32 0 -35 -2 -35 -30z"/>
<path d="M960 965 c0 -8 -7 -15 -15 -15 -11 0 -15 -12 -15 -45 0 -33 4 -45 15
-45 8 0 15 -7 15 -15 0 -12 17 -15 95 -15 78 0 95 3 95 15 0 12 -15 15 -75 15
l-75 0 0 45 0 45 75 0 c60 0 75 3 75 15 0 12 -17 15 -95 15 -78 0 -95 -3 -95
-15z"/>
<path d="M1680 965 c0 -12 13 -15 60 -15 47 0 60 -3 60 -15 0 -12 -13 -15 -60
-15 -47 0 -60 -3 -60 -15 0 -8 -7 -15 -15 -15 -8 0 -15 -7 -15 -15 0 -8 7 -15
15 -15 8 0 15 -7 15 -15 0 -12 17 -15 95 -15 l95 0 0 60 c0 47 -3 60 -15 60
-8 0 -15 7 -15 15 0 12 -16 15 -80 15 -64 0 -80 -3 -80 -15z m120 -90 c0 -11
-11 -15 -40 -15 -29 0 -40 4 -40 15 0 11 11 15 40 15 29 0 40 -4 40 -15z"/>
</g>
</svg>
